<svg width="24" height="24" viewBox="0 0 24 24" fill="none" xmlns="http://www.w3.org/2000/svg">
<path d="M10.4995 8.93043C10.6195 8.93043 10.7395 8.88468 10.831 8.79312L11.081 8.54312C11.264 8.36006 11.264 8.06328 11.081 7.88022C10.898 7.69715 10.6011 7.69715 10.4181 7.88022L10.1681 8.13022C9.87193 8.4264 10.0857 8.93043 10.4995 8.93043Z" fill="black"/>
<path d="M12.4996 9.18043C12.6195 9.18043 12.7395 9.13468 12.831 9.04312L13.081 8.79312C13.2641 8.61006 13.2641 8.31328 13.081 8.13022C12.898 7.94715 12.6011 7.94715 12.4181 8.13022L12.1681 8.38022C11.8719 8.6764 12.0857 9.18043 12.4996 9.18043Z" fill="black"/>
<path d="M10.4995 10.9304C10.6195 10.9304 10.7395 10.8847 10.831 10.7931L11.081 10.5431C11.264 10.3601 11.264 10.0633 11.081 9.88022C10.898 9.69715 10.6011 9.69715 10.4181 9.88022L10.1681 10.1302C9.87193 10.4264 10.0857 10.9304 10.4995 10.9304Z" fill="black"/>
<path d="M4.46875 12.9306H19.5312C19.7901 12.9306 20 12.7207 20 12.4618C20 12.2029 19.7901 11.9931 19.5312 11.9931H18.9688V6.132C18.9688 4.9545 18.0161 4 16.837 4C16.3446 4 15.8642 4.17216 15.4844 4.48372L15.19 4.72525C14.5313 4.33753 13.6675 4.42609 13.1025 4.99112L12.3954 5.69822C12.2123 5.88128 12.2123 6.17806 12.3954 6.36112L14.1632 8.12891C14.3462 8.31197 14.643 8.312 14.8261 8.12891C15.5767 7.37828 15.5301 7.42181 15.5332 7.42181C16.078 6.877 16.1799 6.05437 15.8388 5.40566L16.0791 5.20853C16.2907 5.03491 16.5581 4.93866 16.8318 4.93753C17.4723 4.93178 18.0312 5.4525 18.0312 6.132V11.9931C17.551 11.9931 4.94447 11.9931 4.46875 11.9931C4.20987 11.9931 4 12.203 4 12.4618C4 12.7207 4.20987 12.9306 4.46875 12.9306Z" fill="black"/>
<path d="M5.2793 13.8682L5.47902 14.9666C5.77623 16.6013 6.98927 17.8709 8.5313 18.2859V18.9619C8.5313 19.2208 8.74117 19.4307 9.00005 19.4307C9.25892 19.4307 9.4688 19.2208 9.4688 18.9619V18.4274C9.61511 18.433 14.4018 18.4323 14.5313 18.4274V18.9619C14.5313 19.2208 14.7412 19.4307 15 19.4307C15.2589 19.4307 15.4688 19.2208 15.4688 18.9619V18.2859C17.0108 17.8709 18.2239 16.6013 18.5211 14.9666L18.7208 13.8682H5.2793V13.8682Z" fill="black"/>
</svg>
