<svg width="25" height="24" viewBox="0 0 25 24" fill="none" xmlns="http://www.w3.org/2000/svg">
<path d="M8.94081 19.0592L4.70802 20L5.64882 15.7672C5.02924 14.6083 4.70604 13.3141 4.70802 12C4.70802 7.5816 8.28962 4 12.708 4C17.1264 4 20.708 7.5816 20.708 12C20.708 16.4184 17.1264 20 12.708 20C11.3939 20.002 10.0997 19.6788 8.94081 19.0592V19.0592ZM9.17281 17.3688L9.69521 17.6488C10.6221 18.1441 11.6571 18.4022 12.708 18.4C13.9738 18.4 15.2112 18.0246 16.2637 17.3214C17.3161 16.6182 18.1364 15.6186 18.6208 14.4492C19.1052 13.2797 19.232 11.9929 18.985 10.7514C18.7381 9.50994 18.1285 8.36957 17.2335 7.47451C16.3384 6.57946 15.1981 5.96992 13.9566 5.72297C12.7151 5.47603 11.4283 5.60277 10.2588 6.08717C9.08939 6.57157 8.08985 7.39187 7.38661 8.44435C6.68337 9.49682 6.30802 10.7342 6.30802 12C6.30802 13.0672 6.56802 14.0944 7.06002 15.0128L7.33922 15.5352L6.81522 17.8928L9.17281 17.3688V17.3688Z" fill="black"/>
</svg>
