<svg width="25" height="24" viewBox="0 0 25 24" fill="none" xmlns="http://www.w3.org/2000/svg">
<path d="M17.1175 15.5128L20.5905 18.8855L19.4431 20L15.9709 16.6266C14.6789 17.6325 13.072 18.1797 11.4161 18.1774C7.38765 18.1774 4.11816 15.0017 4.11816 11.0887C4.11816 7.17574 7.38765 4 11.4161 4C15.4446 4 18.7141 7.17574 18.7141 11.0887C18.7165 12.6971 18.1532 14.2579 17.1175 15.5128ZM15.4908 14.9284C16.5199 13.9005 17.0947 12.5225 17.0923 11.0887C17.0923 8.04214 14.5518 5.57527 11.4161 5.57527C8.27963 5.57527 5.73994 8.04214 5.73994 11.0887C5.73994 14.1345 8.27963 16.6021 11.4161 16.6021C12.8923 16.6044 14.3109 16.0462 15.3692 15.0466L15.4908 14.9284V14.9284Z" fill="black"/>
</svg>
